<?xml version="1.0" encoding="UTF-8"?>
<svg width="32" height="32" viewBox="0 0 32 32" fill="none" xmlns="http://www.w3.org/2000/svg">
  <path d="M24 8V24C24 26.2091 22.2091 28 20 28C17.7909 28 16 26.2091 16 24C16 21.7909 17.7909 20 20 20C20.7286 20 21.4117 20.1948 22 20.5351V12L12 14V24C12 26.2091 10.2091 28 8 28C5.79086 28 4 26.2091 4 24C4 21.7909 5.79086 20 8 20C8.72857 20 9.41165 20.1948 10 20.5351V10C10 9.44772 10.4477 9 11 9L23 7C23.5523 6.44772 24 6.89543 24 7.44772V8Z" fill="#1DB954"/>
</svg> 